# xmcd
#
# Track frame offsets:
# 150
# 34455
# 51352
# 70212
# 92207
# 106962
# 121815
# 142332
# 161925
# 189277
# 204440
# 226487
# 240095
# 256357
# 278570
#
# Disc length: 3996 seconds
#
# Revision: 0
# Processed by: cddbd v1.4PL0 Copyright (c) Steve Scherf et al.
# Submitted via: Audion 3.0.2 (http://www.panic.com/audion/)
#
DISCID=d80f9a0f
DTITLE=Brian Christopher - On Special Request
DYEAR=1900
DGENRE=
TTITLE0=Mediaterranean Sundance
TTITLE1=Roxanne
TTITLE2=Baker Street
TTITLE3=Space oddity
TTITLE4=Ziggy
TTITLE5=Different for Girls
TTITLE6=Summertime
TTITLE7=Psycho Killer
TTITLE8=Sultans of Swing
TTITLE9=Can 't sleep without you
TTITLE10=Smells like teen spirit
TTITLE11=Here comes the sun
TTITLE12=Only the good die young
TTITLE13=Slip Sliding Away
TTITLE14=Candl in the wind
EXTD=
EXTT0=
EXTT1=
EXTT2=
EXTT3=
EXTT4=
EXTT5=
EXTT6=
EXTT7=
EXTT8=
EXTT9=
EXTT10=
EXTT11=
EXTT12=
EXTT13=
EXTT14=
PLAYORDER=
